# AST/ASF file generated using VICON BodyLanguage
# -----------------------------------------------
:version 1.10
:name VICON
:units
  mass 1.0
  length 0.45
  angle deg
:documentation
   .ast/.asf automatically generated from VICON data using
   VICON BodyBuilder and BodyLanguage model FoxedUp or BRILLIANT.MOD
:root
   order TX TY TZ RX RY RZ
   axis XYZ
   position 0 0 0  
   orientation 0 0 0 
:bonedata
  begin
     id 1 
     name lhipjoint
     direction 0.611804 -0.747784 0.257906 
     length 2.29243 
     axis 0 0 0  XYZ
  end
  begin
     id 2 
     name lfemur
     direction 0.34202 -0.939693 0  
     length 7.31159  
     axis 0 0 20  XYZ
    dof rx ry rz
    limits (-160.0 20.0)
           (-70.0 70.0)
           (-60.0 70.0)
  end
  begin
     id 3 
     name ltibia
     direction 0.34202 -0.939693 0   
     length 7.33391   
     axis 0 0 20   XYZ
    dof rx
    limits (-10.0 170.0)
  end
  begin
     id 4 
     name lfoot
     direction 0.122263 -0.335914 0.933924   
     length 1.76083   
     axis -90 7.62852e-016 20   XYZ
    dof rx rz
    limits (-45.0 90.0)
           (-70.0 20.0)
  end
  begin
     id 5 
     name ltoes
     direction 1.53533e-011 -4.2177e-011 1   
     length 0.879206   
     axis -90 7.62852e-016 20   XYZ
    dof rx
    limits (-90.0 20.0)
  end
  begin
     id 6 
     name rhipjoint
     direction -0.646469 -0.721248 0.248754   
     length 2.37677  
     axis 0 0 0  XYZ 
  end
  begin
     id 7 
     name rfemur
     direction -0.34202 -0.939693 0   
     length 7.18623   
     axis 0 0 -20   XYZ
    dof rx ry rz
    limits (-160.0 20.0)
           (-70.0 70.0)
           (-70.0 60.0)
  end
  begin
     id 8 
     name rtibia
     direction -0.34202 -0.939693 0   
     length 7.36567   
     axis 0 0 -20   XYZ
    dof rx
    limits (-10.0 170.0)
 end
 begin
     id 9 
     name rfoot
     direction -0.126681 -0.348054 0.928876   
     length 1.71902  
     axis -90 -7.62852e-016 -20   XYZ
    dof rx rz
    limits (-45.0 90.0)
           (-20.0 70.0)
  end
  begin
     id 10 
     name rtoes
     direction -1.53551e-011 -4.21898e-011 1   
     length 0.857792   
     axis -90 -7.62852e-016 -20   XYZ
    dof rx
    limits (-90.0 20.0)
  end
  begin
     id 11 
     name lowerback
     direction 0.0106509 0.999778 0.0181844   
     length 2.07668   
     axis 0 0 0   XYZ
    dof rx ry rz
    limits (-20.0 45.0)
           (-30.0 30.0)
           (-30.0 30.0)
  end
  begin
     id 12 
     name upperback
     direction -0.00456018 0.999989 -0.000590935   
     length 2.08011   
     axis 0 0 0   XYZ
    dof rx ry rz
    limits (-20.0 45.0)
           (-30.0 30.0)
           (-30.0 30.0)
  end
  begin
     id 13 
     name thorax
     direction -0.00910382 0.999916 -0.00923765   
     length 2.07397   
     axis 0 0 0   XYZ
    dof rx ry rz
    limits (-20.0 45.0)
           (-30.0 30.0)
           (-30.0 30.0)
  end
  begin
     id 14 
     name lowerneck
     direction 0.00171967 0.99778 0.0665733   
     length 1.67556   
     axis 0 0 0   XYZ
    dof rx ry rz
    limits (-20.0 45.0)
           (-30.0 30.0)
           (-30.0 30.0)
  end
  begin
     id 15 
     name upperneck
     direction -0.0143166 0.991302 -0.130828   
     length 1.68462   
     axis 0 0 0   XYZ
    dof rx ry rz
    limits (-20.0 45.0)
           (-30.0 30.0)
           (-30.0 30.0)
  end
  begin
     id 16
     name head
     direction -0.00606378 0.998665 -0.0512995  
     length 1.69269  
     axis 0 0 0   XYZ
    dof rx ry rz
    limits (-20.0 45.0)
           (-30.0 30.0)
           (-30.0 30.0)
  end
  begin
     id 17 
     name lclavicle
     direction 0.9638 0.179341 0.197297  
     length 4.12888  
     axis 0 0 0   XYZ
    dof ry rz
    limits (-20.0 10.0)
           (0.0 20.0)
  end
  begin
     id 18 
     name lhumerus
     direction 1 -4.48972e-011 -2.47351e-027   
     length 5.01834   
     axis -180 -30 -90   XYZ
    dof rx ry rz
    limits (-60.0 90.0)
           (-90.0 90.0)
           (-90.0 90.0)
  end
  begin
     id 19
     name lradius
     direction 1 -4.48965e-011 1.51591e-026   
     length 3.4869   
     axis -180 -30 -90   XYZ
    dof rx
    limits (-10.0 170.0)
  end
  begin
     id 20
     name lwrist
     direction 1 -4.48957e-011 2.70032e-026   
     length 1.74345   
     axis -1.81515e-014 90 90   XYZ
    dof ry
    limits (-180.0 0.0)
 end
  begin
     id 21 
     name lhand
     direction 1 -4.48951e-011 5.40064e-026   
     length 0.76799   
     axis -3.44607e-014 90 90   XYZ
    dof rx rz
    limits (-90.0 90.0)
           (-45.0 45.0)
  end
  begin
     id 22 
     name lfingers
     direction 1 -4.48971e-011 1.08013e-025   
     length 0.619174   
     axis -6.89214e-014 90 90   XYZ
    dof rx
    limits (0.0 90.0)
  end
  begin
     id 23
     name lthumb
     direction 0.707107 -6.34931e-011 0.707107   
     length 0.889013   
     axis -90 45 2.85299e-015   XYZ
    dof rx rz
    limits (-45.0 45.0)
           (-45.0 45.0)
  end
  begin
     id 24 
     name rclavicle
     direction -0.961409 0.252588 0.109054   
     length 4.04305  
     axis 0 0 0   XYZ 
    dof ry rz
    limits (-10.0 20.0)
           (-20.0 0.0)
  end
  begin
     id 25 
     name rhumerus
     direction -1 -4.4897e-011 1.33872e-017  
     length 4.70164   
     axis -180 30 90   XYZ
    dof rx ry rz
    limits (-90.0 60.0)
           (-90.0 90.0)
           (-90.0 90.0)
  end
  begin
     id 26 
     name rradius
     direction -1 -4.48954e-011 1.83844e-026   
     length 3.49911   
     axis -180 30 90   XYZ
    dof rx
    limits (-10.0 170.0)
  end
  begin
     id 27 
     name rwrist
     direction -1 -4.49008e-011 2.70032e-026   
     length 1.74955   
     axis -1.81515e-014 -90 -90   XYZ
    dof ry
    limits (-180.0 0.0)
  end
  begin
     id 28
     name rhand
     direction -1 -4.48916e-011 5.40064e-026   
     length 0.739335   
     axis -3.44607e-014 -90 -90   XYZ
    dof rx rz
    limits (-90.0 90.0)
           (-45.0 45.0)
  end
  begin
     id 29
     name rfingers
     direction -1 -4.48987e-011 1.08013e-025   
     length 0.596071   
     axis -6.89214e-014 -90 -90   XYZ
    dof rx
    limits (0.0 90.0)
  end
  begin
     id 30
     name rthumb
     direction -0.707107 -6.34935e-011 0.707107   
     length 0.855843   
     axis -90 -45 -2.85299e-015   XYZ
    dof rx rz
    limits (-45.0 45.0)
           (-45.0 45.0)
  end
:hierarchy
  begin
    root lhipjoint rhipjoint lowerback
    lhipjoint lfemur
    lfemur ltibia
    ltibia lfoot
    lfoot ltoes
    rhipjoint rfemur
    rfemur rtibia
    rtibia rfoot
    rfoot rtoes
    lowerback upperback
    upperback thorax
    thorax lowerneck lclavicle rclavicle
    lowerneck upperneck
    upperneck head
    lclavicle lhumerus
    lhumerus lradius
    lradius lwrist
    lwrist lhand lthumb
    lhand lfingers
    rclavicle rhumerus
    rhumerus rradius
    rradius rwrist
    rwrist rhand rthumb
    rhand rfingers
  end

#!OML:ASF I:\salsa\salsa 7_09\Patient 1\Session 1\dancermale.ASF
:FULLY-SPECIFIED
:DEGREES
421
root -1.27245 17.1615 -1.61821 356.237 95.1473 349.049
lowerback -2.3309 0.815624 3.44155
upperback 0.37283 0.992565 3.12279
thorax 1.69256 0.538155 1.31605
lowerneck -7.26123 -4.6649 -1.10605
upperneck 17.8548 -6.01663 0.407922
head 6.67685 -2.81858 -0.146596
rclavicle -1.09332e-014 1.59028e-014
rhumerus -37.7321 6.99119 -88.9671
rradius 90.3959
rwrist 15.945
rhand -57.1518 3.40034
rfingers 7.12502
rthumb -29.4364 -24.2875
lclavicle -1.09332e-014 1.59028e-014
lhumerus 37.047 13.5648 74.4869
lradius 102.363
lwrist 37.6238
lhand -26.233 64.918
lfingers 7.12502
lthumb 0.320741 985.102
rfemur -35.2074 -4.41659 16.7008
rtibia 71.1327
rfoot -10.0397 -9.31604
rtoes 6.0692
lfemur -15.5724 1.40761 -23.4733
ltibia 30.783
lfoot -24.4265 3.93769
ltoes -8.05423
422
root -1.41337 17.1324 -1.61426 345.624 93.9619 338.19
lowerback -2.55285 1.20099 2.85629
upperback 0.367069 1.50738 2.97441
thorax 1.80138 0.787622 1.51552
lowerneck -7.23756 -4.5872 -1.04539
upperneck 18.1073 -5.87034 0.17634
head 6.74314 -2.75719 -0.220683
rclavicle -1.17283e-014 -4.77083e-015
rhumerus -39.4809 8.18396 -90.1156
rradius 91.3509
rwrist 16.3056
rhand -57.9688 3.74744
rfingers 7.12502
rthumb -30.2161 -23.8005
lclavicle -1.17283e-014 -4.77083e-015
lhumerus 38.8827 14.1544 73.7963
lradius 99.6667
lwrist 38.8292
lhand -25.4882 65.4009
lfingers 7.12502
lthumb 1.04009 984.622
rfemur -34.7979 -3.94282 16.4265
rtibia 74.0991
rfoot -8.78625 -8.98663
rtoes 9.13005
lfemur -16.0237 2.09077 -24.2226
ltibia 30.2179
lfoot -23.7194 4.0967
ltoes -5.80978
423
root -1.55714 17.1084 -1.61 325.38 93.0832 317.659
lowerback -2.77332 1.58771 2.17491
upperback 0.425812 2.0288 2.84061
thorax 1.964 1.03923 1.78871
lowerneck -7.41573 -4.49759 -1.21759
upperneck 18.3526 -5.69837 0.0647876
head 6.85427 -2.69084 -0.221991
rclavicle 3.69739e-014 4.45278e-014
rhumerus -41.0668 9.30134 -91.1986
rradius 92.3135
rwrist 16.5495
rhand -58.7229 4.27707
rfingers 7.12502
rthumb -30.9353 -23.1367
lclavicle 3.69739e-014 4.45278e-014
lhumerus 40.8353 14.7822 73.277
lradius 96.8942
lwrist 39.8008
lhand -24.6494 65.9948
lfingers 7.12502
lthumb 1.85016 984.033
rfemur -34.1852 -3.61116 15.9112
rtibia 76.3762
rfoot -7.34832 -8.53881
rtoes 11.7355
lfemur -16.6062 2.14593 -25.1559
ltibia 29.8414
lfoot -23.0844 4.81731
ltoes -4.27499
424
root -1.69991 17.0942 -1.59745 295.979 92.674 288.034
lowerback -2.90739 1.98194 1.55399
upperback 0.542354 2.56454 2.74485
thorax 2.12837 1.2979 2.06943
lowerneck -7.61272 -4.44356 -1.38167
upperneck 18.4446 -5.57845 -0.0532645
head 6.91948 -2.65373 -0.229356
rclavicle -6.16232e-015 -2.06736e-014
rhumerus -42.572 10.2804 -92.3327
rradius 93.2593
rwrist 16.7426
rhand -59.2681 5.57552
rfingers 7.12502
rthumb -31.4548 -21.7383
lclavicle -6.16232e-015 -2.06736e-014
lhumerus 42.8931 15.4205 72.8335
lradius 93.9885
lwrist 40.5444
lhand -23.8014 66.3454
lfingers 7.12502
lthumb 2.66912 983.692
rfemur -33.2326 -3.19961 15.458
rtibia 77.7348
rfoot -5.88021 -8.15929
rtoes 15.4525
lfemur -17.1927 2.29283 -25.8718
ltibia 29.6542
lfoot -22.5741 5.79753
ltoes -5.87207
425
root -1.83537 17.0869 -1.57389 267.892 92.7974 259.65
lowerback -3.16454 2.34196 1.03628
upperback 0.63559 3.05228 2.76246
thorax 2.32914 1.53321 2.41459
lowerneck -7.49837 -4.18924 -0.883226
upperneck 18.1606 -5.18817 -0.718767
head 6.77152 -2.49339 -0.484559
rclavicle 1.41137e-014 -5.88403e-014
rhumerus -44.1632 11.2371 -93.4768
rradius 94.2337
rwrist 16.9828
rhand -59.7962 6.65983
rfingers 7.12502
rthumb -31.9578 -20.5546
lclavicle 1.41137e-014 -5.88403e-014
lhumerus 44.9447 16.0078 72.5185
lradius 90.957
lwrist 41.0427
lhand -23.1461 66.5428
lfingers 7.12502
lthumb 3.30202 983.503
rfemur -32.0825 -2.75601 15.2672
rtibia 78.2633
rfoot -4.8865 -7.98529
rtoes 18.6297
lfemur -17.9414 2.90672 -26.2221
ltibia 29.6685
lfoot -22.1673 6.56287
ltoes -9.88791
426
root -1.9707 17.0835 -1.54373 246.125 93.3969 237.41
lowerback -3.5894 2.70054 0.488841
upperback 0.685543 3.54085 2.87401
thorax 2.56291 1.76729 2.88482
lowerneck -7.36503 -3.9071 -0.652154
upperneck 17.8554 -4.76419 -1.15849
head 6.63202 -2.31476 -0.621509
rclavicle -2.98177e-014 -3.33958e-014
rhumerus -45.8204 12.2902 -94.4742
rradius 95.2468
rwrist 17.3472
rhand -60.3194 7.4951
rfingers 7.12502
rthumb -32.4559 -19.6183
lclavicle -2.98177e-014 -3.33958e-014
lhumerus 47.0282 16.5246 72.3496
lradius 87.7949
lwrist 41.2973
lhand -22.7958 66.8715
lfingers 7.12502
lthumb 3.64025 983.18
rfemur -31.0026 -2.27145 15.1465
rtibia 78.1588
rfoot -4.69601 -7.79873
rtoes 18.7558
lfemur -18.9357 3.93808 -26.4131
ltibia 29.6932
lfoot -21.8586 6.75819
ltoes -11.3984
